<svg width="12" height="12" viewBox="0 0 12 12" fill="none" xmlns="http://www.w3.org/2000/svg">
<path d="M11.7396 5.21012C11.9758 4.97993 12.0592 4.64209 11.9573 4.32803C11.8552 4.01398 11.5892 3.78979 11.2624 3.74222L8.35685 3.32004C8.2331 3.30202 8.12618 3.2244 8.07091 3.11219L6.77193 0.479625C6.62607 0.183833 6.33004 1.52588e-05 6.00013 1.52588e-05C5.67046 1.52588e-05 5.37442 0.183833 5.22857 0.479625L3.92934 3.11243C3.87408 3.22464 3.76691 3.30226 3.64316 3.32028L0.737628 3.74246C0.411079 3.78979 0.144842 4.01422 0.042721 4.32827C-0.0591602 4.64233 0.024219 4.98017 0.26042 5.21036L2.36268 7.25951C2.45231 7.34698 2.4934 7.47289 2.47225 7.59591L1.9763 10.4894C1.93233 10.7441 1.99913 10.9919 2.16396 11.1872C2.42011 11.4917 2.86728 11.5844 3.22483 11.3965L5.82328 10.0302C5.93189 9.9733 6.06861 9.97378 6.17698 10.0302L8.77567 11.3965C8.90206 11.4631 9.03686 11.4967 9.17599 11.4967C9.42997 11.4967 9.67073 11.3838 9.83629 11.1872C10.0014 10.9919 10.0679 10.7436 10.024 10.4894L9.52776 7.59591C9.50662 7.47265 9.54771 7.34698 9.63733 7.25951L11.7396 5.21012Z" fill="#9D2929"/>
</svg>
