<svg width="12" height="12" viewBox="0 0 12 12" fill="none" xmlns="http://www.w3.org/2000/svg">
<path d="M11.7396 5.21047C11.9758 4.98027 12.0592 4.64242 11.9573 4.32836C11.8552 4.0143 11.5892 3.79011 11.2624 3.74254L8.35677 3.32035C8.23302 3.30232 8.12609 3.22471 8.07082 3.11249L6.77181 0.479635C6.62596 0.183837 6.32992 1.52588e-05 6 1.52588e-05C5.67032 1.52588e-05 5.37428 0.183837 5.22843 0.479635L3.92918 3.11249C3.87391 3.22471 3.76674 3.30232 3.64299 3.32035L0.737401 3.74278C0.410847 3.79011 0.144845 4.0143 0.0427218 4.32836C-0.0591613 4.64242 0.0242195 4.98027 0.260425 5.21047L2.36272 7.25966C2.45235 7.34713 2.49344 7.47304 2.4723 7.59607L1.9761 10.4899C1.92035 10.815 2.05131 11.1372 2.31827 11.3314C2.58499 11.5258 2.93221 11.551 3.22465 11.397L5.82315 10.0307C5.93392 9.97254 6.06608 9.97254 6.17685 10.0307L8.77559 11.397C8.90247 11.4638 9.03991 11.4967 9.17664 11.4967C9.35421 11.4967 9.53107 11.4412 9.68197 11.3314C9.94893 11.1372 10.0799 10.815 10.0241 10.4899L9.5277 7.59631C9.50656 7.47304 9.54765 7.34737 9.63727 7.2599L11.7396 5.21047ZM9.05433 7.67753L9.55053 10.5711C9.57552 10.7167 9.51905 10.8558 9.39939 10.9428C9.27948 11.0296 9.13026 11.0401 8.9993 10.9719L6.40056 9.60538C6.27537 9.53978 6.13745 9.50662 6 9.50662C5.86255 9.50662 5.72487 9.53978 5.59944 9.60562L3.00118 10.9719C2.86974 11.0401 2.72052 11.0296 2.60085 10.9428C2.48119 10.8558 2.42496 10.717 2.44971 10.5711L2.94591 7.67753C2.99373 7.39831 2.90122 7.11333 2.69841 6.91581L0.59587 4.86637C0.489902 4.76305 0.453859 4.61743 0.499754 4.47686C0.545409 4.33605 0.660028 4.23946 0.806364 4.21807L3.71171 3.79588C3.99213 3.75527 4.23459 3.57938 4.35978 3.32515L5.65903 0.692291C5.72439 0.559651 5.85198 0.480596 5.99976 0.480596C6.14778 0.480596 6.27513 0.559651 6.34073 0.692291L7.63998 3.32515C7.76517 3.57938 8.00739 3.75527 8.2878 3.79588L11.1934 4.21807C11.3397 4.23946 11.4544 4.33605 11.5 4.47686C11.5457 4.61743 11.5099 4.76305 11.4039 4.86637L9.30159 6.91557C9.09878 7.11333 9.00627 7.39807 9.05433 7.67753Z" fill="#9D2929"/>
</svg>
